<?xml version="1.0" encoding="UTF-8"?>
<svg xmlns="http://www.w3.org/2000/svg" xmlns:xlink="http://www.w3.org/1999/xlink" width="30pt" height="27pt" viewBox="0 0 30 27" version="1.1">
    <g id="itch">
        <path style=" stroke:black;fill-opacity:0;" d="M 3.90625 0.167969 C 2.601562 0.945312 0.0234375 3.914062 0 4.695312 L 0 5.980469 C 0 7.617188 1.523438 9.050781 2.902344 9.050781 C 4.5625 9.050781 5.945312 7.671875 5.945312 6.035156 C 5.945312 7.671875 7.28125 9.050781 8.9375 9.050781 C 10.597656 9.050781 11.890625 7.671875 11.890625 6.035156 C 11.890625 7.671875 13.308594 9.050781 14.96875 9.050781 L 15 9.050781 C 16.660156 9.050781 18.078125 7.671875 18.078125 6.035156 C 18.078125 7.671875 19.371094 9.050781 21.03125 9.050781 C 22.6875 9.050781 24.023438 7.671875 24.023438 6.035156 C 24.023438 7.671875 25.40625 9.050781 27.066406 9.050781 C 28.445312 9.050781 29.96875 7.617188 29.96875 5.980469 L 29.96875 4.695312 C 29.945312 3.914062 27.367188 0.945312 26.0625 0.167969 C 22 0.0234375 19.183594 0 14.984375 0 C 10.785156 0 5.0625 0.0664062 3.90625 0.167969 Z M 11.871094 8.28125 C 11.710938 8.558594 11.515625 8.8125 11.285156 9.035156 C 10.660156 9.652344 9.800781 10.03125 8.855469 10.03125 C 7.945312 10.03125 7.070312 9.675781 6.417969 9.035156 C 6.191406 8.8125 6.019531 8.574219 5.859375 8.296875 C 5.703125 8.574219 5.484375 8.8125 5.253906 9.039062 C 4.605469 9.675781 3.730469 10.035156 2.820312 10.03125 C 2.703125 10.03125 2.585938 10 2.488281 9.96875 C 2.355469 11.363281 2.300781 12.691406 2.28125 13.664062 L 2.28125 13.671875 C 2.277344 14.164062 2.273438 14.570312 2.273438 15.132812 C 2.296875 18.054688 1.984375 24.609375 3.558594 26.21875 C 5.996094 26.789062 10.484375 27.050781 14.984375 27.050781 C 19.484375 27.050781 23.972656 26.789062 26.410156 26.21875 C 27.984375 24.609375 27.671875 18.054688 27.695312 15.132812 C 27.695312 14.570312 27.691406 14.164062 27.6875 13.667969 L 27.6875 13.664062 C 27.667969 12.691406 27.613281 11.359375 27.480469 9.96875 C 27.382812 10 27.265625 10.03125 27.148438 10.03125 C 26.238281 10.03125 25.363281 9.675781 24.714844 9.035156 C 24.488281 8.8125 24.265625 8.574219 24.109375 8.296875 C 23.949219 8.574219 23.777344 8.8125 23.550781 9.035156 C 22.898438 9.675781 22.023438 10.03125 21.113281 10.03125 C 20.167969 10.03125 19.308594 9.652344 18.683594 9.035156 C 18.453125 8.8125 18.257812 8.558594 18.097656 8.28125 C 17.941406 8.558594 17.746094 8.8125 17.519531 9.035156 C 16.871094 9.675781 15.996094 10.03125 15.085938 10.03125 C 15.050781 10.03125 15.019531 10.03125 14.984375 10.03125 C 14.953125 10.03125 14.917969 10.03125 14.886719 10.03125 C 13.972656 10.03125 13.101562 9.675781 12.449219 9.035156 C 12.222656 8.8125 12.027344 8.558594 11.871094 8.28125 Z M 9.367188 11.527344 L 9.367188 11.53125 L 9.371094 11.53125 C 10.359375 11.53125 11.242188 11.53125 12.332031 12.722656 C 13.1875 12.632812 14.085938 12.589844 14.984375 12.589844 C 15.882812 12.589844 16.78125 12.632812 17.636719 12.722656 C 18.730469 11.53125 19.609375 11.53125 20.601562 11.53125 L 20.601562 11.527344 C 21.070312 11.527344 22.941406 11.527344 24.246094 15.207031 L 25.648438 20.25 C 26.6875 24.003906 25.316406 24.097656 23.605469 24.097656 C 21.070312 24.003906 19.664062 22.15625 19.664062 20.308594 C 18.261719 20.539062 16.621094 20.65625 14.984375 20.65625 C 13.347656 20.65625 11.707031 20.539062 10.304688 20.308594 C 10.304688 22.15625 8.898438 24.003906 6.363281 24.097656 C 4.652344 24.097656 3.28125 24.003906 4.320312 20.25 L 5.722656 15.207031 C 7.027344 11.527344 8.898438 11.527344 9.367188 11.527344 Z M 14.984375 14.417969 C 14.980469 14.421875 12.3125 16.878906 11.835938 17.753906 L 13.582031 17.683594 L 13.582031 19.214844 C 13.582031 19.285156 14.28125 19.253906 14.984375 19.222656 C 15.6875 19.253906 16.386719 19.285156 16.386719 19.214844 L 16.386719 17.683594 L 18.132812 17.753906 C 17.65625 16.878906 14.984375 14.417969 14.984375 14.417969 Z M 14.984375 14.417969 "/>
    </g>
</svg>
